<svg height="511pt" viewBox="0 0 511 511.73193" width="511pt" xmlns="http://www.w3.org/2000/svg"><path d="m151.621094 283.757812c-14.8125-4.59375-29.335938-10.082031-43.484375-16.433593l-84.746094 84.742187c32.933594-11.8125 64.582031-26.941406 94.457031-45.152344 11.644532-7.136718 22.917969-14.867187 33.773438-23.15625zm0 0"/><path d="m297.957031 274.71875c35.519531-9.554688 61.675781-39.734375 66.09375-76.25 3.582031-28.601562-6.277343-56.003906-23.976562-66.613281-40.609375-24.347657-71.699219-24.769531-95.144531-1.335938l-123.355469 123.367188c29.128906 12.289062 108.914062 41.082031 176.382812 20.832031zm0 0"/><path d="m316.378906 101.1875c18.1875-51.597656 67.347656-83.058594 112.738282-90.695312-6.5625-5.402344-14.480469-8.90625-22.890626-10.132813-26.808593-3.53125-50.527343 19.71875-69.570312 38.40625-6.566406 6.453125-13.054688 12.996094-19.535156 19.527344l-37.445313 37.472656c12.472657-.640625 24.949219 1.203125 36.703125 5.421875zm0 0"/><path d="m473.644531 56.792969 20.945313-16.03125-26.691406-5.445313c2.1875 5.527344 3.875 11.242188 5.039062 17.070313.300781 1.503906.492188 2.960937.707031 4.40625zm0 0"/><path d="m332.753906 107.886719c5.359375 2.550781 10.824219 5.472656 16.421875 8.828125 23.832031 14.328125 36.890625 48.058594 32.414063 83.949218-1.082032 8.597657-3.15625 17.039063-6.179688 25.160157 7.632813 5.351562 15.636719 10.15625 23.949219 14.378906 9.898437-19.546875 15.328125-41.050781 15.890625-62.957031 0-37.121094 5.886719-51.984375 37.074219-93.574219 2.125-2.992187 3.488281-6.457031 3.972656-10.097656 0-.203125.078125-.398438.113281-.609375.671875-5.722656.398438-11.515625-.800781-17.152344-1.945313-9.597656-5.558594-18.777344-10.671875-27.125-.554688-.628906-1.015625-1.332031-1.359375-2.09375-43.46875 2.84375-94.050781 32.945312-110.824219 81.292969zm91.324219-63.046875c4.875 0 8.824219 3.953125 8.824219 8.828125s-3.949219 8.828125-8.824219 8.828125c-4.878906 0-8.828125-3.953125-8.828125-8.828125s3.949219-8.828125 8.828125-8.828125zm0 0"/><path d="m507.9375 486.449219-71.070312-41.417969c20.082031-1.765625 39.609374-3.082031 58.191406-3.929688 2.347656-.09375 4.558594-1.117187 6.148437-2.847656 1.589844-1.730468 2.421875-4.019531 2.316407-6.367187-.328126-4.824219-4.390626-8.535157-9.222657-8.429688-38.621093 1.765625-81.214843 5.648438-124.644531 10.714844l-40.652344-33.332031-37.339844-30.660156c6.644532-8.738282 43.324219-53.078126 60.148438-72.738282 1.667969-1.15625 3.410156-2.242187 4.988281-3.53125 13.375-10.796875 24.851563-23.75 33.960938-38.328125-7.9375-4.058593-15.621094-8.605469-22.996094-13.613281-14.402344 24.230469-37.570313 42-64.707031 49.628906-18.503906 5.371094-37.695313 8.015625-56.964844 7.847656-24.808594-.265624-49.496094-3.5625-73.507812-9.824218-9.089844 7.484375-18.800782 14.726562-29.128907 21.726562 11.417969 3.082032 23.011719 5.488282 34.71875 7.203125 23.710938 3.402344 47.648438 4.949219 71.601563 4.625-12.359375 14.246094-26.484375 30.738281-30.703125 36.269531-5.703125 7.484376-4.535157 18.121094 2.648437 24.191407l43.808594 36.015625-4.914062 29.226562c-134.480469 20.347656-251.4375 45.003906-253.265626 45.390625-4.414062.941407-7.4062495 5.0625-6.9375 9.554688.46875 4.488281 4.25 7.902343 8.765626 7.90625.617187 0 1.234374-.0625 1.835937-.191407 2.066406-.441406 148.867187-31.375 302.285156-52.394531.296875.320313.625.636719.882813.929688-.671875.359375-1.363282.675781-2.078125.941406-2.964844 1.117187-5.105469 3.734375-5.609375 6.863281s.707031 6.289063 3.175781 8.277344 5.816406 2.5 8.765625 1.34375c10.511719-4.035156 13.390625-10.304688 13.945312-14.847656.21875-2.011719.039063-4.046875-.535156-5.988282 10.761719-1.410156 21.507813-2.761718 32.238282-4.050781.296874.316407.625.636719.882812.925781-.671875.359376-1.367188.675782-2.078125.945313-2.964844 1.113281-5.105469 3.734375-5.609375 6.863281s.707031 6.289063 3.175781 8.277344 5.816407 2.5 8.765625 1.339844c10.511719-4.03125 13.390625-10.300782 13.945313-14.835938.210937-1.90625.054687-3.832031-.457031-5.679687 8.085937-.910157 16.113281-1.765625 24.082031-2.566407l92.34375 53.847657c4.191406 2.144531 9.328125.628906 11.675781-3.449219 2.347656-4.082031 1.085938-9.285156-2.875-11.832031zm-162.523438-49.328125c-5.828124.730468-11.65625 1.480468-17.488281 2.25l2.472657-14.574219zm-72.234374-113.980469 1.144531-1.324219c13.488281-1.183594 26.84375-3.582031 39.902343-7.167968-15.988281 19.214843-32.484374 39.371093-36.644531 44.835937-5.679687 7.5-4.476562 18.140625 2.738281 24.1875l34.355469 28.246094-3.769531 22.261719-77.796875-63.972657c5.085937-6.777343 27.84375-32.980469 40.070313-47.066406zm8.066406 109.460937 13.699218 11.253907c-5.347656.761719-10.675781 1.527343-15.984374 2.304687zm0 0"/></svg>