<?xml version="1.0" encoding="iso-8859-1"?>
<!-- Generator: Adobe Illustrator 19.0.0, SVG Export Plug-In . SVG Version: 6.00 Build 0)  -->
<svg version="1.1" id="Capa_1" xmlns="http://www.w3.org/2000/svg" xmlns:xlink="http://www.w3.org/1999/xlink" x="0px" y="0px"
	 viewBox="0 0 512 512" style="enable-background:new 0 0 512 512;" xml:space="preserve">
<g>
	<g>
		<path d="M0,16v480h512V16H0z M30,46h362v60H30V46z M482,466H30V136h452V466z M482,106h-60V46h60V106z"/>
	</g>
</g>
<g>
	<g>
		<path d="M311,256v-15c0-30.327-24.673-55-55-55c-30.327,0-55,24.673-55,55v20c0,30.327,24.673,55,55,55c13.785,0,25,11.215,25,25
			v20c0,13.785-11.215,25-25,25c-13.785,0-25-11.215-25-25v-25h-30v25c0,30.327,24.673,55,55,55c30.327,0,55-24.673,55-55v-20
			c0-30.327-24.673-55-55-55c-13.785,0-25-11.215-25-25v-20c0-13.785,11.215-25,25-25c13.785,0,25,11.215,25,25v15H311z"/>
	</g>
</g>
<g>
	<g>
		<path d="M448.5,256v-15c0-30.327-24.673-55-55-55c-30.327,0-55,24.673-55,55v20c0,30.327,24.673,55,55,55
			c13.785,0,25,11.215,25,25v20c0,13.785-11.215,25-25,25c-13.785,0-25-11.215-25-25v-25h-30v25c0,30.327,24.673,55,55,55
			c30.327,0,55-24.673,55-55v-20c0-30.327-24.673-55-55-55c-13.785,0-25-11.215-25-25v-20c0-13.785,11.215-25,25-25
			c13.785,0,25,11.215,25,25v15H448.5z"/>
	</g>
</g>
<g>
	<g>
		<path d="M173.5,256v-15c0-30.327-24.673-55-55-55c-30.327,0-55,24.673-55,55v120c0,30.327,24.673,55,55,55
			c30.327,0,55-24.673,55-55v-25h-30v25c0,13.785-11.215,25-25,25c-13.785,0-25-11.215-25-25V241c0-13.785,11.215-25,25-25
			c13.785,0,25,11.215,25,25v15H173.5z"/>
	</g>
</g>
<g>
</g>
<g>
</g>
<g>
</g>
<g>
</g>
<g>
</g>
<g>
</g>
<g>
</g>
<g>
</g>
<g>
</g>
<g>
</g>
<g>
</g>
<g>
</g>
<g>
</g>
<g>
</g>
<g>
</g>
</svg>
